<mxfile host="app.diagrams.net" modified="2022-04-19T07:30:32.265Z" agent="5.0 (Windows NT 10.0; Win64; x64) AppleWebKit/537.36 (KHTML, like Gecko) Chrome/100.0.4896.127 Safari/537.36" etag="4sIG8VCdz7SBWy7YKZ8i" version="17.4.5" type="github">
  <diagram id="y5-ArMUVISZthWghw4e-" name="第 1 页">
    <mxGraphModel dx="1420" dy="706" grid="1" gridSize="10" guides="1" tooltips="1" connect="1" arrows="1" fold="1" page="1" pageScale="1" pageWidth="2336" pageHeight="1654" math="0" shadow="0">
      <root>
        <mxCell id="0" />
        <mxCell id="1" parent="0" />
        <mxCell id="bnOiq0095lczLOuPGoA0-1" value="" style="shape=table;startSize=0;container=1;collapsible=0;childLayout=tableLayout;sketch=0;strokeColor=default;" parent="1" vertex="1">
          <mxGeometry x="440" y="130" width="90" height="720" as="geometry" />
        </mxCell>
        <mxCell id="bnOiq0095lczLOuPGoA0-2" value="" style="shape=tableRow;horizontal=0;startSize=0;swimlaneHead=0;swimlaneBody=0;top=0;left=0;bottom=0;right=0;collapsible=0;dropTarget=0;fillColor=none;points=[[0,0.5],[1,0.5]];portConstraint=eastwest;sketch=0;strokeColor=default;swimlaneLine=1;" parent="bnOiq0095lczLOuPGoA0-1" vertex="1">
          <mxGeometry width="90" height="29" as="geometry" />
        </mxCell>
        <mxCell id="bnOiq0095lczLOuPGoA0-3" value="" style="shape=partialRectangle;html=1;whiteSpace=wrap;connectable=0;overflow=hidden;fillColor=#cce5ff;top=0;left=0;bottom=0;right=0;pointerEvents=1;strokeColor=#36393d;sketch=0;swimlaneLine=1;" parent="bnOiq0095lczLOuPGoA0-2" vertex="1">
          <mxGeometry width="90" height="29" as="geometry">
            <mxRectangle width="90" height="29" as="alternateBounds" />
          </mxGeometry>
        </mxCell>
        <mxCell id="bnOiq0095lczLOuPGoA0-4" value="" style="shape=tableRow;horizontal=0;startSize=0;swimlaneHead=0;swimlaneBody=0;top=0;left=0;bottom=0;right=0;collapsible=0;dropTarget=0;fillColor=none;points=[[0,0.5],[1,0.5]];portConstraint=eastwest;sketch=0;strokeColor=default;swimlaneLine=1;" parent="bnOiq0095lczLOuPGoA0-1" vertex="1">
          <mxGeometry y="29" width="90" height="34" as="geometry" />
        </mxCell>
        <mxCell id="bnOiq0095lczLOuPGoA0-5" value="" style="shape=partialRectangle;html=1;whiteSpace=wrap;connectable=0;overflow=hidden;fillColor=#cce5ff;top=0;left=0;bottom=0;right=0;pointerEvents=1;sketch=0;strokeColor=#36393d;swimlaneLine=1;" parent="bnOiq0095lczLOuPGoA0-4" vertex="1">
          <mxGeometry width="90" height="34" as="geometry">
            <mxRectangle width="90" height="34" as="alternateBounds" />
          </mxGeometry>
        </mxCell>
        <mxCell id="bnOiq0095lczLOuPGoA0-6" value="" style="shape=tableRow;horizontal=0;startSize=0;swimlaneHead=0;swimlaneBody=0;top=0;left=0;bottom=0;right=0;collapsible=0;dropTarget=0;fillColor=none;points=[[0,0.5],[1,0.5]];portConstraint=eastwest;sketch=0;strokeColor=default;swimlaneLine=1;" parent="bnOiq0095lczLOuPGoA0-1" vertex="1">
          <mxGeometry y="63" width="90" height="28" as="geometry" />
        </mxCell>
        <mxCell id="bnOiq0095lczLOuPGoA0-7" value="" style="shape=partialRectangle;html=1;whiteSpace=wrap;connectable=0;overflow=hidden;fillColor=#cce5ff;top=0;left=0;bottom=0;right=0;pointerEvents=1;strokeColor=#36393d;sketch=0;swimlaneLine=1;" parent="bnOiq0095lczLOuPGoA0-6" vertex="1">
          <mxGeometry width="90" height="28" as="geometry">
            <mxRectangle width="90" height="28" as="alternateBounds" />
          </mxGeometry>
        </mxCell>
        <mxCell id="bnOiq0095lczLOuPGoA0-8" value="" style="shape=tableRow;horizontal=0;startSize=0;swimlaneHead=0;swimlaneBody=0;top=0;left=0;bottom=0;right=0;collapsible=0;dropTarget=0;fillColor=none;points=[[0,0.5],[1,0.5]];portConstraint=eastwest;sketch=0;strokeColor=default;swimlaneLine=1;" parent="bnOiq0095lczLOuPGoA0-1" vertex="1">
          <mxGeometry y="91" width="90" height="29" as="geometry" />
        </mxCell>
        <mxCell id="bnOiq0095lczLOuPGoA0-9" value="" style="shape=partialRectangle;html=1;whiteSpace=wrap;connectable=0;overflow=hidden;fillColor=#cce5ff;top=0;left=0;bottom=0;right=0;pointerEvents=1;strokeColor=#36393d;sketch=0;swimlaneLine=1;" parent="bnOiq0095lczLOuPGoA0-8" vertex="1">
          <mxGeometry width="90" height="29" as="geometry">
            <mxRectangle width="90" height="29" as="alternateBounds" />
          </mxGeometry>
        </mxCell>
        <mxCell id="bnOiq0095lczLOuPGoA0-10" value="" style="shape=tableRow;horizontal=0;startSize=0;swimlaneHead=0;swimlaneBody=0;top=0;left=0;bottom=0;right=0;collapsible=0;dropTarget=0;fillColor=none;points=[[0,0.5],[1,0.5]];portConstraint=eastwest;sketch=0;strokeColor=default;swimlaneLine=1;" parent="bnOiq0095lczLOuPGoA0-1" vertex="1">
          <mxGeometry y="120" width="90" height="29" as="geometry" />
        </mxCell>
        <mxCell id="bnOiq0095lczLOuPGoA0-11" value="" style="shape=partialRectangle;html=1;whiteSpace=wrap;connectable=0;overflow=hidden;fillColor=#cce5ff;top=0;left=0;bottom=0;right=0;pointerEvents=1;strokeColor=#36393d;sketch=0;swimlaneLine=1;" parent="bnOiq0095lczLOuPGoA0-10" vertex="1">
          <mxGeometry width="90" height="29" as="geometry">
            <mxRectangle width="90" height="29" as="alternateBounds" />
          </mxGeometry>
        </mxCell>
        <mxCell id="bnOiq0095lczLOuPGoA0-12" value="" style="shape=tableRow;horizontal=0;startSize=0;swimlaneHead=0;swimlaneBody=0;top=0;left=0;bottom=0;right=0;collapsible=0;dropTarget=0;fillColor=none;points=[[0,0.5],[1,0.5]];portConstraint=eastwest;sketch=0;strokeColor=default;swimlaneLine=1;" parent="bnOiq0095lczLOuPGoA0-1" vertex="1">
          <mxGeometry y="149" width="90" height="34" as="geometry" />
        </mxCell>
        <mxCell id="bnOiq0095lczLOuPGoA0-13" value="" style="shape=partialRectangle;html=1;whiteSpace=wrap;connectable=0;overflow=hidden;fillColor=#cce5ff;top=0;left=0;bottom=0;right=0;pointerEvents=1;strokeColor=#36393d;sketch=0;swimlaneLine=1;" parent="bnOiq0095lczLOuPGoA0-12" vertex="1">
          <mxGeometry width="90" height="34" as="geometry">
            <mxRectangle width="90" height="34" as="alternateBounds" />
          </mxGeometry>
        </mxCell>
        <mxCell id="bnOiq0095lczLOuPGoA0-14" value="" style="shape=tableRow;horizontal=0;startSize=0;swimlaneHead=0;swimlaneBody=0;top=0;left=0;bottom=0;right=0;collapsible=0;dropTarget=0;fillColor=none;points=[[0,0.5],[1,0.5]];portConstraint=eastwest;sketch=0;strokeColor=default;swimlaneLine=1;" parent="bnOiq0095lczLOuPGoA0-1" vertex="1">
          <mxGeometry y="183" width="90" height="28" as="geometry" />
        </mxCell>
        <mxCell id="bnOiq0095lczLOuPGoA0-15" value="" style="shape=partialRectangle;html=1;whiteSpace=wrap;connectable=0;overflow=hidden;fillColor=#cce5ff;top=0;left=0;bottom=0;right=0;pointerEvents=1;strokeColor=#36393d;sketch=0;swimlaneLine=1;" parent="bnOiq0095lczLOuPGoA0-14" vertex="1">
          <mxGeometry width="90" height="28" as="geometry">
            <mxRectangle width="90" height="28" as="alternateBounds" />
          </mxGeometry>
        </mxCell>
        <mxCell id="bnOiq0095lczLOuPGoA0-16" value="" style="shape=tableRow;horizontal=0;startSize=0;swimlaneHead=0;swimlaneBody=0;top=0;left=0;bottom=0;right=0;collapsible=0;dropTarget=0;fillColor=none;points=[[0,0.5],[1,0.5]];portConstraint=eastwest;sketch=0;strokeColor=default;swimlaneLine=1;" parent="bnOiq0095lczLOuPGoA0-1" vertex="1">
          <mxGeometry y="211" width="90" height="29" as="geometry" />
        </mxCell>
        <mxCell id="bnOiq0095lczLOuPGoA0-17" value="" style="shape=partialRectangle;html=1;whiteSpace=wrap;connectable=0;overflow=hidden;fillColor=#cce5ff;top=0;left=0;bottom=0;right=0;pointerEvents=1;strokeColor=#36393d;sketch=0;swimlaneLine=1;" parent="bnOiq0095lczLOuPGoA0-16" vertex="1">
          <mxGeometry width="90" height="29" as="geometry">
            <mxRectangle width="90" height="29" as="alternateBounds" />
          </mxGeometry>
        </mxCell>
        <mxCell id="ukCVWDNKJFyq6qt0lecr-66" value="" style="shape=tableRow;horizontal=0;startSize=0;swimlaneHead=0;swimlaneBody=0;top=0;left=0;bottom=0;right=0;collapsible=0;dropTarget=0;fillColor=none;points=[[0,0.5],[1,0.5]];portConstraint=eastwest;sketch=0;strokeColor=default;" parent="bnOiq0095lczLOuPGoA0-1" vertex="1">
          <mxGeometry y="240" width="90" height="29" as="geometry" />
        </mxCell>
        <mxCell id="ukCVWDNKJFyq6qt0lecr-67" value="" style="shape=partialRectangle;html=1;whiteSpace=wrap;connectable=0;overflow=hidden;fillColor=#cce5ff;top=0;left=0;bottom=0;right=0;pointerEvents=1;strokeColor=#36393d;sketch=0;" parent="ukCVWDNKJFyq6qt0lecr-66" vertex="1">
          <mxGeometry width="90" height="29" as="geometry">
            <mxRectangle width="90" height="29" as="alternateBounds" />
          </mxGeometry>
        </mxCell>
        <mxCell id="ukCVWDNKJFyq6qt0lecr-68" value="" style="shape=tableRow;horizontal=0;startSize=0;swimlaneHead=0;swimlaneBody=0;top=0;left=0;bottom=0;right=0;collapsible=0;dropTarget=0;fillColor=none;points=[[0,0.5],[1,0.5]];portConstraint=eastwest;sketch=0;strokeColor=default;" parent="bnOiq0095lczLOuPGoA0-1" vertex="1">
          <mxGeometry y="269" width="90" height="34" as="geometry" />
        </mxCell>
        <mxCell id="ukCVWDNKJFyq6qt0lecr-69" value="" style="shape=partialRectangle;html=1;whiteSpace=wrap;connectable=0;overflow=hidden;fillColor=#ffff88;top=0;left=0;bottom=0;right=0;pointerEvents=1;sketch=0;strokeColor=#36393d;" parent="ukCVWDNKJFyq6qt0lecr-68" vertex="1">
          <mxGeometry width="90" height="34" as="geometry">
            <mxRectangle width="90" height="34" as="alternateBounds" />
          </mxGeometry>
        </mxCell>
        <mxCell id="ukCVWDNKJFyq6qt0lecr-70" value="" style="shape=tableRow;horizontal=0;startSize=0;swimlaneHead=0;swimlaneBody=0;top=0;left=0;bottom=0;right=0;collapsible=0;dropTarget=0;fillColor=none;points=[[0,0.5],[1,0.5]];portConstraint=eastwest;sketch=0;strokeColor=default;" parent="bnOiq0095lczLOuPGoA0-1" vertex="1">
          <mxGeometry y="303" width="90" height="28" as="geometry" />
        </mxCell>
        <mxCell id="ukCVWDNKJFyq6qt0lecr-71" value="" style="shape=partialRectangle;html=1;whiteSpace=wrap;connectable=0;overflow=hidden;fillColor=#ffff88;top=0;left=0;bottom=0;right=0;pointerEvents=1;strokeColor=#36393d;sketch=0;" parent="ukCVWDNKJFyq6qt0lecr-70" vertex="1">
          <mxGeometry width="90" height="28" as="geometry">
            <mxRectangle width="90" height="28" as="alternateBounds" />
          </mxGeometry>
        </mxCell>
        <mxCell id="ukCVWDNKJFyq6qt0lecr-72" value="" style="shape=tableRow;horizontal=0;startSize=0;swimlaneHead=0;swimlaneBody=0;top=0;left=0;bottom=0;right=0;collapsible=0;dropTarget=0;fillColor=none;points=[[0,0.5],[1,0.5]];portConstraint=eastwest;sketch=0;strokeColor=default;" parent="bnOiq0095lczLOuPGoA0-1" vertex="1">
          <mxGeometry y="331" width="90" height="29" as="geometry" />
        </mxCell>
        <mxCell id="ukCVWDNKJFyq6qt0lecr-73" value="" style="shape=partialRectangle;html=1;whiteSpace=wrap;connectable=0;overflow=hidden;fillColor=#ffff88;top=0;left=0;bottom=0;right=0;pointerEvents=1;strokeColor=#36393d;sketch=0;" parent="ukCVWDNKJFyq6qt0lecr-72" vertex="1">
          <mxGeometry width="90" height="29" as="geometry">
            <mxRectangle width="90" height="29" as="alternateBounds" />
          </mxGeometry>
        </mxCell>
        <mxCell id="ukCVWDNKJFyq6qt0lecr-74" value="" style="shape=tableRow;horizontal=0;startSize=0;swimlaneHead=0;swimlaneBody=0;top=0;left=0;bottom=0;right=0;collapsible=0;dropTarget=0;fillColor=none;points=[[0,0.5],[1,0.5]];portConstraint=eastwest;sketch=0;strokeColor=default;" parent="bnOiq0095lczLOuPGoA0-1" vertex="1">
          <mxGeometry y="360" width="90" height="29" as="geometry" />
        </mxCell>
        <mxCell id="ukCVWDNKJFyq6qt0lecr-75" value="" style="shape=partialRectangle;html=1;whiteSpace=wrap;connectable=0;overflow=hidden;fillColor=#ffff88;top=0;left=0;bottom=0;right=0;pointerEvents=1;strokeColor=#36393d;sketch=0;" parent="ukCVWDNKJFyq6qt0lecr-74" vertex="1">
          <mxGeometry width="90" height="29" as="geometry">
            <mxRectangle width="90" height="29" as="alternateBounds" />
          </mxGeometry>
        </mxCell>
        <mxCell id="ukCVWDNKJFyq6qt0lecr-76" value="" style="shape=tableRow;horizontal=0;startSize=0;swimlaneHead=0;swimlaneBody=0;top=0;left=0;bottom=0;right=0;collapsible=0;dropTarget=0;fillColor=none;points=[[0,0.5],[1,0.5]];portConstraint=eastwest;sketch=0;strokeColor=default;" parent="bnOiq0095lczLOuPGoA0-1" vertex="1">
          <mxGeometry y="389" width="90" height="34" as="geometry" />
        </mxCell>
        <mxCell id="ukCVWDNKJFyq6qt0lecr-77" value="" style="shape=partialRectangle;html=1;whiteSpace=wrap;connectable=0;overflow=hidden;fillColor=#f8cecc;top=0;left=0;bottom=0;right=0;pointerEvents=1;strokeColor=#b85450;sketch=1;" parent="ukCVWDNKJFyq6qt0lecr-76" vertex="1">
          <mxGeometry width="90" height="34" as="geometry">
            <mxRectangle width="90" height="34" as="alternateBounds" />
          </mxGeometry>
        </mxCell>
        <mxCell id="ukCVWDNKJFyq6qt0lecr-78" value="" style="shape=tableRow;horizontal=0;startSize=0;swimlaneHead=0;swimlaneBody=0;top=0;left=0;bottom=0;right=0;collapsible=0;dropTarget=0;fillColor=none;points=[[0,0.5],[1,0.5]];portConstraint=eastwest;sketch=0;strokeColor=default;" parent="bnOiq0095lczLOuPGoA0-1" vertex="1">
          <mxGeometry y="423" width="90" height="28" as="geometry" />
        </mxCell>
        <mxCell id="ukCVWDNKJFyq6qt0lecr-79" value="" style="shape=partialRectangle;html=1;whiteSpace=wrap;connectable=0;overflow=hidden;fillColor=#f8cecc;top=0;left=0;bottom=0;right=0;pointerEvents=1;strokeColor=#b85450;sketch=1;" parent="ukCVWDNKJFyq6qt0lecr-78" vertex="1">
          <mxGeometry width="90" height="28" as="geometry">
            <mxRectangle width="90" height="28" as="alternateBounds" />
          </mxGeometry>
        </mxCell>
        <mxCell id="ukCVWDNKJFyq6qt0lecr-80" value="" style="shape=tableRow;horizontal=0;startSize=0;swimlaneHead=0;swimlaneBody=0;top=0;left=0;bottom=0;right=0;collapsible=0;dropTarget=0;fillColor=none;points=[[0,0.5],[1,0.5]];portConstraint=eastwest;sketch=0;strokeColor=default;" parent="bnOiq0095lczLOuPGoA0-1" vertex="1">
          <mxGeometry y="451" width="90" height="29" as="geometry" />
        </mxCell>
        <mxCell id="ukCVWDNKJFyq6qt0lecr-81" value="" style="shape=partialRectangle;html=1;whiteSpace=wrap;connectable=0;overflow=hidden;fillColor=#f8cecc;top=0;left=0;bottom=0;right=0;pointerEvents=1;strokeColor=#b85450;sketch=1;" parent="ukCVWDNKJFyq6qt0lecr-80" vertex="1">
          <mxGeometry width="90" height="29" as="geometry">
            <mxRectangle width="90" height="29" as="alternateBounds" />
          </mxGeometry>
        </mxCell>
        <mxCell id="ukCVWDNKJFyq6qt0lecr-82" value="" style="shape=tableRow;horizontal=0;startSize=0;swimlaneHead=0;swimlaneBody=0;top=0;left=0;bottom=0;right=0;collapsible=0;dropTarget=0;fillColor=none;points=[[0,0.5],[1,0.5]];portConstraint=eastwest;sketch=0;strokeColor=default;" parent="bnOiq0095lczLOuPGoA0-1" vertex="1">
          <mxGeometry y="480" width="90" height="29" as="geometry" />
        </mxCell>
        <mxCell id="ukCVWDNKJFyq6qt0lecr-83" value="" style="shape=partialRectangle;html=1;whiteSpace=wrap;connectable=0;overflow=hidden;fillColor=#fff2cc;top=0;left=0;bottom=0;right=0;pointerEvents=1;strokeColor=#d6b656;sketch=0;" parent="ukCVWDNKJFyq6qt0lecr-82" vertex="1">
          <mxGeometry width="90" height="29" as="geometry">
            <mxRectangle width="90" height="29" as="alternateBounds" />
          </mxGeometry>
        </mxCell>
        <mxCell id="ukCVWDNKJFyq6qt0lecr-84" value="" style="shape=tableRow;horizontal=0;startSize=0;swimlaneHead=0;swimlaneBody=0;top=0;left=0;bottom=0;right=0;collapsible=0;dropTarget=0;fillColor=none;points=[[0,0.5],[1,0.5]];portConstraint=eastwest;sketch=0;strokeColor=default;" parent="bnOiq0095lczLOuPGoA0-1" vertex="1">
          <mxGeometry y="509" width="90" height="34" as="geometry" />
        </mxCell>
        <mxCell id="ukCVWDNKJFyq6qt0lecr-85" value="" style="shape=partialRectangle;html=1;whiteSpace=wrap;connectable=0;overflow=hidden;fillColor=#fff2cc;top=0;left=0;bottom=0;right=0;pointerEvents=1;sketch=0;strokeColor=#d6b656;" parent="ukCVWDNKJFyq6qt0lecr-84" vertex="1">
          <mxGeometry width="90" height="34" as="geometry">
            <mxRectangle width="90" height="34" as="alternateBounds" />
          </mxGeometry>
        </mxCell>
        <mxCell id="ukCVWDNKJFyq6qt0lecr-86" value="" style="shape=tableRow;horizontal=0;startSize=0;swimlaneHead=0;swimlaneBody=0;top=0;left=0;bottom=0;right=0;collapsible=0;dropTarget=0;fillColor=none;points=[[0,0.5],[1,0.5]];portConstraint=eastwest;sketch=0;strokeColor=default;" parent="bnOiq0095lczLOuPGoA0-1" vertex="1">
          <mxGeometry y="543" width="90" height="28" as="geometry" />
        </mxCell>
        <mxCell id="ukCVWDNKJFyq6qt0lecr-87" value="" style="shape=partialRectangle;html=1;whiteSpace=wrap;connectable=0;overflow=hidden;fillColor=#fff2cc;top=0;left=0;bottom=0;right=0;pointerEvents=1;strokeColor=#d6b656;sketch=0;" parent="ukCVWDNKJFyq6qt0lecr-86" vertex="1">
          <mxGeometry width="90" height="28" as="geometry">
            <mxRectangle width="90" height="28" as="alternateBounds" />
          </mxGeometry>
        </mxCell>
        <mxCell id="ukCVWDNKJFyq6qt0lecr-88" value="" style="shape=tableRow;horizontal=0;startSize=0;swimlaneHead=0;swimlaneBody=0;top=0;left=0;bottom=0;right=0;collapsible=0;dropTarget=0;fillColor=none;points=[[0,0.5],[1,0.5]];portConstraint=eastwest;sketch=0;strokeColor=default;" parent="bnOiq0095lczLOuPGoA0-1" vertex="1">
          <mxGeometry y="571" width="90" height="29" as="geometry" />
        </mxCell>
        <mxCell id="ukCVWDNKJFyq6qt0lecr-89" value="" style="shape=partialRectangle;html=1;whiteSpace=wrap;connectable=0;overflow=hidden;fillColor=#fff2cc;top=0;left=0;bottom=0;right=0;pointerEvents=1;strokeColor=#d6b656;sketch=0;" parent="ukCVWDNKJFyq6qt0lecr-88" vertex="1">
          <mxGeometry width="90" height="29" as="geometry">
            <mxRectangle width="90" height="29" as="alternateBounds" />
          </mxGeometry>
        </mxCell>
        <mxCell id="ukCVWDNKJFyq6qt0lecr-90" value="" style="shape=tableRow;horizontal=0;startSize=0;swimlaneHead=0;swimlaneBody=0;top=0;left=0;bottom=0;right=0;collapsible=0;dropTarget=0;fillColor=none;points=[[0,0.5],[1,0.5]];portConstraint=eastwest;sketch=0;strokeColor=default;" parent="bnOiq0095lczLOuPGoA0-1" vertex="1">
          <mxGeometry y="600" width="90" height="29" as="geometry" />
        </mxCell>
        <mxCell id="ukCVWDNKJFyq6qt0lecr-91" value="" style="shape=partialRectangle;html=1;whiteSpace=wrap;connectable=0;overflow=hidden;fillColor=#fff2cc;top=0;left=0;bottom=0;right=0;pointerEvents=1;strokeColor=#d6b656;sketch=0;" parent="ukCVWDNKJFyq6qt0lecr-90" vertex="1">
          <mxGeometry width="90" height="29" as="geometry">
            <mxRectangle width="90" height="29" as="alternateBounds" />
          </mxGeometry>
        </mxCell>
        <mxCell id="ukCVWDNKJFyq6qt0lecr-92" value="" style="shape=tableRow;horizontal=0;startSize=0;swimlaneHead=0;swimlaneBody=0;top=0;left=0;bottom=0;right=0;collapsible=0;dropTarget=0;fillColor=none;points=[[0,0.5],[1,0.5]];portConstraint=eastwest;sketch=0;strokeColor=default;" parent="bnOiq0095lczLOuPGoA0-1" vertex="1">
          <mxGeometry y="629" width="90" height="34" as="geometry" />
        </mxCell>
        <mxCell id="ukCVWDNKJFyq6qt0lecr-93" value="" style="shape=partialRectangle;html=1;whiteSpace=wrap;connectable=0;overflow=hidden;fillColor=#fff2cc;top=0;left=0;bottom=0;right=0;pointerEvents=1;strokeColor=#d6b656;sketch=0;" parent="ukCVWDNKJFyq6qt0lecr-92" vertex="1">
          <mxGeometry width="90" height="34" as="geometry">
            <mxRectangle width="90" height="34" as="alternateBounds" />
          </mxGeometry>
        </mxCell>
        <mxCell id="ukCVWDNKJFyq6qt0lecr-94" value="" style="shape=tableRow;horizontal=0;startSize=0;swimlaneHead=0;swimlaneBody=0;top=0;left=0;bottom=0;right=0;collapsible=0;dropTarget=0;fillColor=none;points=[[0,0.5],[1,0.5]];portConstraint=eastwest;sketch=0;strokeColor=default;" parent="bnOiq0095lczLOuPGoA0-1" vertex="1">
          <mxGeometry y="663" width="90" height="28" as="geometry" />
        </mxCell>
        <mxCell id="ukCVWDNKJFyq6qt0lecr-95" value="" style="shape=partialRectangle;html=1;whiteSpace=wrap;connectable=0;overflow=hidden;fillColor=#fff2cc;top=0;left=0;bottom=0;right=0;pointerEvents=1;strokeColor=#d6b656;sketch=0;" parent="ukCVWDNKJFyq6qt0lecr-94" vertex="1">
          <mxGeometry width="90" height="28" as="geometry">
            <mxRectangle width="90" height="28" as="alternateBounds" />
          </mxGeometry>
        </mxCell>
        <mxCell id="ukCVWDNKJFyq6qt0lecr-96" value="" style="shape=tableRow;horizontal=0;startSize=0;swimlaneHead=0;swimlaneBody=0;top=0;left=0;bottom=0;right=0;collapsible=0;dropTarget=0;fillColor=none;points=[[0,0.5],[1,0.5]];portConstraint=eastwest;sketch=0;strokeColor=default;" parent="bnOiq0095lczLOuPGoA0-1" vertex="1">
          <mxGeometry y="691" width="90" height="29" as="geometry" />
        </mxCell>
        <mxCell id="ukCVWDNKJFyq6qt0lecr-97" value="" style="shape=partialRectangle;html=1;whiteSpace=wrap;connectable=0;overflow=hidden;fillColor=#fff2cc;top=0;left=0;bottom=0;right=0;pointerEvents=1;strokeColor=#d6b656;sketch=0;" parent="ukCVWDNKJFyq6qt0lecr-96" vertex="1">
          <mxGeometry width="90" height="29" as="geometry">
            <mxRectangle width="90" height="29" as="alternateBounds" />
          </mxGeometry>
        </mxCell>
        <mxCell id="bnOiq0095lczLOuPGoA0-18" value="" style="endArrow=classic;html=1;rounded=0;exitX=0.1;exitY=0.5;exitDx=0;exitDy=0;entryX=0;entryY=0.5;entryDx=0;entryDy=0;exitPerimeter=0;sketch=0;strokeColor=default;swimlaneLine=1;" parent="1" source="bnOiq0095lczLOuPGoA0-22" target="bnOiq0095lczLOuPGoA0-19" edge="1">
          <mxGeometry width="50" height="50" relative="1" as="geometry">
            <mxPoint x="550" y="150" as="sourcePoint" />
            <mxPoint x="570" y="153" as="targetPoint" />
          </mxGeometry>
        </mxCell>
        <mxCell id="bnOiq0095lczLOuPGoA0-19" value="BigData a" style="text;html=1;strokeColor=none;fillColor=none;align=left;verticalAlign=middle;whiteSpace=wrap;rounded=0;sketch=0;swimlaneLine=1;" parent="1" vertex="1">
          <mxGeometry x="570" y="255" width="70" height="20" as="geometry" />
        </mxCell>
        <mxCell id="bnOiq0095lczLOuPGoA0-21" value="" style="shape=curlyBracket;whiteSpace=wrap;html=1;rounded=1;flipH=1;sketch=0;strokeColor=default;swimlaneLine=1;" parent="1" vertex="1">
          <mxGeometry x="530" y="400" width="10" height="120" as="geometry" />
        </mxCell>
        <mxCell id="bnOiq0095lczLOuPGoA0-22" value="" style="shape=curlyBracket;whiteSpace=wrap;html=1;rounded=1;flipH=1;sketch=0;strokeColor=default;swimlaneLine=1;" parent="1" vertex="1">
          <mxGeometry x="530" y="130" width="10" height="270" as="geometry" />
        </mxCell>
        <mxCell id="bnOiq0095lczLOuPGoA0-23" value="" style="endArrow=classic;html=1;rounded=0;entryX=0;entryY=0.5;entryDx=0;entryDy=0;exitX=0.1;exitY=0.5;exitDx=0;exitDy=0;exitPerimeter=0;sketch=0;strokeColor=default;swimlaneLine=1;" parent="1" source="bnOiq0095lczLOuPGoA0-21" target="bnOiq0095lczLOuPGoA0-24" edge="1">
          <mxGeometry width="50" height="50" relative="1" as="geometry">
            <mxPoint x="550" y="460" as="sourcePoint" />
            <mxPoint x="585.5" y="468" as="targetPoint" />
          </mxGeometry>
        </mxCell>
        <mxCell id="bnOiq0095lczLOuPGoA0-24" value="int b" style="text;html=1;strokeColor=none;fillColor=none;align=left;verticalAlign=middle;whiteSpace=wrap;rounded=0;sketch=0;swimlaneLine=1;" parent="1" vertex="1">
          <mxGeometry x="570" y="450" width="60" height="20" as="geometry" />
        </mxCell>
        <mxCell id="bnOiq0095lczLOuPGoA0-26" value="&lt;span&gt;编译器对齐系数 n = 4&lt;/span&gt;&lt;br&gt;&lt;span&gt;最长数据类型长度 m = 8&lt;/span&gt;&lt;br&gt;&lt;span&gt;对齐单位s = min(m, n) = 4&lt;/span&gt;" style="shape=callout;whiteSpace=wrap;html=1;perimeter=calloutPerimeter;sketch=0;position2=0.88;align=left;strokeColor=default;" parent="1" vertex="1">
          <mxGeometry x="170" y="166" width="160" height="90" as="geometry" />
        </mxCell>
        <mxCell id="bnOiq0095lczLOuPGoA0-28" value="" style="shape=curlyBracket;whiteSpace=wrap;html=1;rounded=1;sketch=0;strokeColor=default;swimlaneLine=1;" parent="1" vertex="1">
          <mxGeometry x="430" y="130" width="10" height="240" as="geometry" />
        </mxCell>
        <mxCell id="bnOiq0095lczLOuPGoA0-29" value="" style="shape=curlyBracket;whiteSpace=wrap;html=1;rounded=1;sketch=0;strokeColor=default;swimlaneLine=1;" parent="1" vertex="1">
          <mxGeometry x="430" y="370" width="10" height="240" as="geometry" />
        </mxCell>
        <mxCell id="bnOiq0095lczLOuPGoA0-30" value="8 字节" style="text;html=1;strokeColor=none;fillColor=none;align=right;verticalAlign=middle;whiteSpace=wrap;rounded=0;sketch=0;swimlaneLine=1;" parent="1" vertex="1">
          <mxGeometry x="350" y="240" width="50" height="20" as="geometry" />
        </mxCell>
        <mxCell id="bnOiq0095lczLOuPGoA0-31" value="" style="endArrow=classic;html=1;rounded=0;exitX=0.1;exitY=0.5;exitDx=0;exitDy=0;exitPerimeter=0;entryX=1;entryY=0.5;entryDx=0;entryDy=0;sketch=0;strokeColor=default;swimlaneLine=1;" parent="1" source="bnOiq0095lczLOuPGoA0-28" target="bnOiq0095lczLOuPGoA0-30" edge="1">
          <mxGeometry width="50" height="50" relative="1" as="geometry">
            <mxPoint x="370" y="210" as="sourcePoint" />
            <mxPoint x="420" y="160" as="targetPoint" />
          </mxGeometry>
        </mxCell>
        <mxCell id="bnOiq0095lczLOuPGoA0-33" value="8 字节" style="text;html=1;strokeColor=none;fillColor=none;align=right;verticalAlign=middle;whiteSpace=wrap;rounded=0;sketch=0;swimlaneLine=1;" parent="1" vertex="1">
          <mxGeometry x="350" y="480" width="50" height="20" as="geometry" />
        </mxCell>
        <mxCell id="bnOiq0095lczLOuPGoA0-34" value="" style="endArrow=classic;html=1;rounded=0;exitX=0.1;exitY=0.5;exitDx=0;exitDy=0;exitPerimeter=0;entryX=1;entryY=0.5;entryDx=0;entryDy=0;sketch=0;strokeColor=default;swimlaneLine=1;" parent="1" source="bnOiq0095lczLOuPGoA0-29" target="bnOiq0095lczLOuPGoA0-33" edge="1">
          <mxGeometry width="50" height="50" relative="1" as="geometry">
            <mxPoint x="430" y="309.9999999999999" as="sourcePoint" />
            <mxPoint x="419" y="280" as="targetPoint" />
          </mxGeometry>
        </mxCell>
        <mxCell id="bnOiq0095lczLOuPGoA0-40" value="" style="endArrow=classic;html=1;rounded=0;entryX=0;entryY=0.5;entryDx=0;entryDy=0;exitX=0.1;exitY=0.5;exitDx=0;exitDy=0;exitPerimeter=0;sketch=0;strokeColor=default;swimlaneLine=1;" parent="1" source="bnOiq0095lczLOuPGoA0-42" target="bnOiq0095lczLOuPGoA0-41" edge="1">
          <mxGeometry width="50" height="50" relative="1" as="geometry">
            <mxPoint x="550" y="550" as="sourcePoint" />
            <mxPoint x="585.5" y="558" as="targetPoint" />
          </mxGeometry>
        </mxCell>
        <mxCell id="bnOiq0095lczLOuPGoA0-41" value="对齐填充" style="text;html=1;strokeColor=none;fillColor=none;align=left;verticalAlign=middle;whiteSpace=wrap;rounded=0;sketch=0;swimlaneLine=1;" parent="1" vertex="1">
          <mxGeometry x="570" y="555" width="60" height="20" as="geometry" />
        </mxCell>
        <mxCell id="bnOiq0095lczLOuPGoA0-42" value="" style="shape=curlyBracket;whiteSpace=wrap;html=1;rounded=1;flipH=1;sketch=0;strokeColor=default;swimlaneLine=1;" parent="1" vertex="1">
          <mxGeometry x="530" y="520" width="10" height="90" as="geometry" />
        </mxCell>
        <mxCell id="bnOiq0095lczLOuPGoA0-43" value="Data5" style="swimlane;fontStyle=0;childLayout=stackLayout;horizontal=1;startSize=26;fillColor=none;horizontalStack=0;resizeParent=1;resizeParentMax=0;resizeLast=0;collapsible=1;marginBottom=0;sketch=0;strokeColor=default;" parent="1" vertex="1">
          <mxGeometry x="170" y="370" width="160" height="104" as="geometry" />
        </mxCell>
        <mxCell id="bnOiq0095lczLOuPGoA0-44" value="+ a: BigData" style="text;strokeColor=none;fillColor=none;align=left;verticalAlign=top;spacingLeft=4;spacingRight=4;overflow=hidden;rotatable=0;points=[[0,0.5],[1,0.5]];portConstraint=eastwest;sketch=0;" parent="bnOiq0095lczLOuPGoA0-43" vertex="1">
          <mxGeometry y="26" width="160" height="26" as="geometry" />
        </mxCell>
        <mxCell id="qdYz1cG67cNBZeQHGUtf-1" value="+ b: int" style="text;strokeColor=none;fillColor=none;align=left;verticalAlign=top;spacingLeft=4;spacingRight=4;overflow=hidden;rotatable=0;points=[[0,0.5],[1,0.5]];portConstraint=eastwest;sketch=0;" parent="bnOiq0095lczLOuPGoA0-43" vertex="1">
          <mxGeometry y="52" width="160" height="26" as="geometry" />
        </mxCell>
        <mxCell id="bnOiq0095lczLOuPGoA0-45" value="+ c: double" style="text;strokeColor=none;fillColor=none;align=left;verticalAlign=top;spacingLeft=4;spacingRight=4;overflow=hidden;rotatable=0;points=[[0,0.5],[1,0.5]];portConstraint=eastwest;sketch=0;" parent="bnOiq0095lczLOuPGoA0-43" vertex="1">
          <mxGeometry y="78" width="160" height="26" as="geometry" />
        </mxCell>
        <mxCell id="ukCVWDNKJFyq6qt0lecr-1" value="BigData" style="swimlane;fontStyle=0;childLayout=stackLayout;horizontal=1;startSize=26;fillColor=none;horizontalStack=0;resizeParent=1;resizeParentMax=0;resizeLast=0;collapsible=1;marginBottom=0;sketch=0;strokeColor=default;" parent="1" vertex="1">
          <mxGeometry x="170" y="256" width="160" height="52" as="geometry" />
        </mxCell>
        <mxCell id="ukCVWDNKJFyq6qt0lecr-2" value="+ array: char[9]" style="text;strokeColor=default;fillColor=none;align=left;verticalAlign=top;spacingLeft=4;spacingRight=4;overflow=hidden;rotatable=0;points=[[0,0.5],[1,0.5]];portConstraint=eastwest;sketch=0;" parent="ukCVWDNKJFyq6qt0lecr-1" vertex="1">
          <mxGeometry y="26" width="160" height="26" as="geometry" />
        </mxCell>
        <mxCell id="ukCVWDNKJFyq6qt0lecr-5" value="" style="endArrow=diamondThin;endFill=1;endSize=24;html=1;rounded=0;entryX=0.5;entryY=0;entryDx=0;entryDy=0;exitX=0.495;exitY=1.008;exitDx=0;exitDy=0;exitPerimeter=0;sketch=0;strokeColor=default;" parent="1" source="ukCVWDNKJFyq6qt0lecr-2" target="bnOiq0095lczLOuPGoA0-43" edge="1">
          <mxGeometry width="160" relative="1" as="geometry">
            <mxPoint x="250" y="310" as="sourcePoint" />
            <mxPoint x="550" y="510" as="targetPoint" />
          </mxGeometry>
        </mxCell>
        <mxCell id="ukCVWDNKJFyq6qt0lecr-99" value="" style="shape=curlyBracket;whiteSpace=wrap;html=1;rounded=1;sketch=0;strokeColor=default;swimlaneLine=1;" parent="1" vertex="1">
          <mxGeometry x="430" y="610" width="10" height="240" as="geometry" />
        </mxCell>
        <mxCell id="ukCVWDNKJFyq6qt0lecr-100" value="8 字节" style="text;html=1;strokeColor=none;fillColor=none;align=right;verticalAlign=middle;whiteSpace=wrap;rounded=0;sketch=0;swimlaneLine=1;" parent="1" vertex="1">
          <mxGeometry x="350" y="720" width="50" height="20" as="geometry" />
        </mxCell>
        <mxCell id="ukCVWDNKJFyq6qt0lecr-101" value="" style="endArrow=classic;html=1;rounded=0;exitX=0.1;exitY=0.5;exitDx=0;exitDy=0;exitPerimeter=0;entryX=1;entryY=0.5;entryDx=0;entryDy=0;sketch=0;strokeColor=default;swimlaneLine=1;" parent="1" source="ukCVWDNKJFyq6qt0lecr-99" target="ukCVWDNKJFyq6qt0lecr-100" edge="1">
          <mxGeometry width="50" height="50" relative="1" as="geometry">
            <mxPoint x="430" y="549.9999999999999" as="sourcePoint" />
            <mxPoint x="419" y="520" as="targetPoint" />
          </mxGeometry>
        </mxCell>
        <mxCell id="ukCVWDNKJFyq6qt0lecr-104" value="" style="endArrow=classic;html=1;rounded=0;exitX=0.1;exitY=0.5;exitDx=0;exitDy=0;entryX=0;entryY=0.5;entryDx=0;entryDy=0;exitPerimeter=0;sketch=0;strokeColor=default;swimlaneLine=1;" parent="1" source="ukCVWDNKJFyq6qt0lecr-106" target="ukCVWDNKJFyq6qt0lecr-105" edge="1">
          <mxGeometry width="50" height="50" relative="1" as="geometry">
            <mxPoint x="550" y="630" as="sourcePoint" />
            <mxPoint x="570" y="633" as="targetPoint" />
          </mxGeometry>
        </mxCell>
        <mxCell id="ukCVWDNKJFyq6qt0lecr-105" value="double c" style="text;html=1;strokeColor=none;fillColor=none;align=left;verticalAlign=middle;whiteSpace=wrap;rounded=0;sketch=0;swimlaneLine=1;" parent="1" vertex="1">
          <mxGeometry x="570" y="720" width="70" height="20" as="geometry" />
        </mxCell>
        <mxCell id="ukCVWDNKJFyq6qt0lecr-106" value="" style="shape=curlyBracket;whiteSpace=wrap;html=1;rounded=1;flipH=1;sketch=0;strokeColor=default;swimlaneLine=1;" parent="1" vertex="1">
          <mxGeometry x="530" y="610" width="10" height="240" as="geometry" />
        </mxCell>
      </root>
    </mxGraphModel>
  </diagram>
</mxfile>
